PathFileType	4	(X/Y/Z)	C:\Users\Basilio\Documents\Thesis Gigler\squatting_fais\c3dfiles\044\SJ_pre4\markers_experimental.trc
DataRate	CameraRate	NumFrames	NumMarkers	Units	OrigDataRate	OrigDataStartFrame	OrigNumFrames
200.000000	200.000000	4	63	mm	200.000000	534	1425
Frame#	Time	FHD			LBHD			RBHD			C7			T10			CLAV			LSHO			LUUPA			LMUPA			LDUPA			LLEP			LMEP			LRAD			LUL			LRFIN			RSHO			RUPA1			RMUPA			RDUPA			RLEP			RMEP			RRAD			RUL			RUFIN			LASI			RASI			USACR			LSACR			LTHI1			LTHI2			LTHI3			LTHI4			LLFC			LMFC			LTIB1			LTIB2			LTIB3			LTIB4			LLMAL			LMMAL			LHEE			LMT1			LMT2			LMT5			RTHI			RTHI2			RTHI3			RTHI4			RLFC			RMFC			RTIB1			RTIB2			RTIB3			RTIB4			RLMAL			RMMAL			RHEE			RMT1			RMT2			RMT5			RSACR			*61			*62			
		X1	Y1	Z1	X2	Y2	Z2	X3	Y3	Z3	X4	Y4	Z4	X5	Y5	Z5	X6	Y6	Z6	X7	Y7	Z7	X8	Y8	Z8	X9	Y9	Z9	X10	Y10	Z10	X11	Y11	Z11	X12	Y12	Z12	X13	Y13	Z13	X14	Y14	Z14	X15	Y15	Z15	X16	Y16	Z16	X17	Y17	Z17	X18	Y18	Z18	X19	Y19	Z19	X20	Y20	Z20	X21	Y21	Z21	X22	Y22	Z22	X23	Y23	Z23	X24	Y24	Z24	X25	Y25	Z25	X26	Y26	Z26	X27	Y27	Z27	X28	Y28	Z28	X29	Y29	Z29	X30	Y30	Z30	X31	Y31	Z31	X32	Y32	Z32	X33	Y33	Z33	X34	Y34	Z34	X35	Y35	Z35	X36	Y36	Z36	X37	Y37	Z37	X38	Y38	Z38	X39	Y39	Z39	X40	Y40	Z40	X41	Y41	Z41	X42	Y42	Z42	X43	Y43	Z43	X44	Y44	Z44	X45	Y45	Z45	X46	Y46	Z46	X47	Y47	Z47	X48	Y48	Z48	X49	Y49	Z49	X50	Y50	Z50	X51	Y51	Z51	X52	Y52	Z52	X53	Y53	Z53	X54	Y54	Z54	X55	Y55	Z55	X56	Y56	Z56	X57	Y57	Z57	X58	Y58	Z58	X59	Y59	Z59	X60	Y60	Z60	X61	Y61	Z61	X62	Y62	Z62	X63	Y63	Z63	

535	2.67	140.8917999267578	1093.034423828125	-918.2094726562502	7.522333145141603	1082.8251953125	-1002.35791015625	-46.46642303466798	1085.671264648438	-845.0823364257815	-126.6368255615235	1002.077270507813	-918.4624023437502	-381.4320983886719	839.881286621094	-899.5041503906252	-58.63636398315431	864.1026000976565	-919.7600708007815	-66.14900970458986	923.6126708984377	-1092.768676757813	-248.3878326416016	881.4251098632815	-1237.201538085938	-265.4662170410157	837.3933105468752	-1225.376342773438	-308.0975341796876	857.4475708007815	-1263.620727539063	-358.8345031738282	827.048034667969	-1273.862182617188	-397.1174621582032	884.4238281250002	-1223.817626953125	-532.5351562500001	664.1137084960939	-1118.312255859375	-506.0811767578126	623.4338989257814	-1168.605590820313	-481.2003479003907	645.9725341796876	-1079.664184570313	-56.91571044921876	923.5051269531252	-734.7644042968751	-213.6961364746094	874.7456665039065	-575.1726074218751	-229.5996246337891	827.2368774414065	-583.9835205078126	-267.4583740234376	845.131286621094	-540.5786743164064	-314.5453491210938	807.5220947265627	-525.0104370117189	-370.4790649414063	863.9995117187502	-563.9154052734376	-503.2959594726564	641.6420288085939	-656.5267333984376	-463.9886779785157	600.8060302734376	-608.7046508789064	-447.3770751953126	632.7375488281251	-704.6452026367189	-407.8368225097657	601.7361450195314	-1021.350280761719	-390.3283081054689	592.9265747070314	-786.0606079101565	-507.5445251464845	715.1907958984376	-888.5571899414065	-537.0200805664064	694.4805908203126	-912.041442871094	-415.5308837890626	514.1550292968751	-1126.141845703125	-332.2002868652344	517.9997558593751	-1149.48095703125	-310.6749877929688	559.7601928710939	-1136.353271484375	-294.5530700683594	472.7839660644532	-1160.812866210938	-158.3966522216797	421.1528930664064	-1176.498901367188	-142.3194427490235	405.4091796875001	-1063.9296875	-198.2505187988282	260.5018615722657	-1093.863891601563	-253.6826629638672	234.8443145751954	-1160.567993164063	-226.1546173095704	217.6157989501954	-1124.321044921875	-281.8128051757813	166.3070831298828	-1087.7177734375	-391.6107788085939	92.50402069091798	-1127.22216796875	-366.3044433593751	99.261100769043	-1042.62109375	-456.8116149902345	50.61211395263673	-1078.085327148438	-238.9413604736329	60.99311828613283	-1076.278930664063	-243.3944702148438	64.94153594970705	-1122.560302734375	-282.5467529296876	40.96308135986329	-1166.726928710938	-341.0214233398438	474.1767578125001	-688.0059204101564	-275.3537902832032	494.9501037597657	-683.6983642578126	-264.3941040039063	524.2891235351564	-692.2124023437501	-209.9074707031251	441.6201782226564	-690.1072387695314	-135.3690795898438	399.0242309570314	-696.9133300781251	-133.3641662597657	394.8226928710939	-817.934509277344	-148.0469512939453	274.3456115722657	-735.9978637695314	-247.8574981689454	257.5143127441407	-687.2908325195314	-218.6170349121094	228.7461090087891	-707.3704833984376	-244.2468872070313	185.5841674804688	-736.9970703125001	-389.6672668457032	95.51524353027345	-719.8918457031251	-366.7452697753907	98.25576782226565	-806.0715332031252	-452.650360107422	50.91721343994142	-768.1597290039065	-241.2513427734376	60.68157958984376	-773.878356933594	-235.4612121582032	59.0817108154297	-735.3549804687501	-274.1185302734376	40.38899993896485	-683.9898071289064	-529.8022460937501	695.2276000976564	-857.7061157226565	nan	nan	nan	nan	nan	nan	
536	2.675	140.8837890625	1092.640258789063	-918.049499511719	7.863014221191408	1082.432006835938	-1002.39404296875	-46.18428039550782	1085.295654296875	-844.981872558594	-125.8843841552735	1001.564208984375	-918.5814208984377	-381.0831604003907	839.3624267578127	-899.5151367187502	-58.22756195068361	863.5274658203127	-919.9018554687502	-65.79273986816408	923.1126708984377	-1092.70654296875	-247.9633941650391	881.0195312500002	-1237.145141601563	-265.0142822265626	836.9060668945315	-1225.376953125	-307.5242614746094	856.967224121094	-1263.723999023438	-358.2669067382813	826.5670166015627	-1273.883178710938	-396.449920654297	883.8618774414065	-1223.96142578125	-532.0877685546876	663.5929565429689	-1118.3232421875	-505.5635986328126	623.1265869140626	-1168.624145507813	-480.8800048828126	645.5567626953126	-1079.667358398438	-56.59912109375001	923.118103027344	-734.7004394531251	-213.3022918701172	874.352233886719	-575.2139282226564	-229.1953430175782	826.9888305664065	-583.9029541015626	-266.7771301269532	844.3978271484377	-540.5133056640626	-314.1700134277344	807.159362792969	-525.1759643554689	-369.9360961914063	863.4048461914065	-563.8331909179689	-502.6870117187501	641.0917968750001	-656.4769897460939	-463.6640014648439	600.4041137695314	-608.5874023437501	-446.9234619140626	632.4110107421876	-704.7066040039064	-406.8044433593751	601.5890502929689	-1021.819030761719	-389.7410583496095	592.0728759765626	-786.6472778320315	-507.1306762695314	714.7256469726564	-888.5288085937502	-536.4392089843751	694.2601318359376	-912.1384277343752	-414.9604797363282	513.6843872070314	-1126.155029296875	-331.6746520996094	517.7331542968751	-1149.538452148438	-310.2743225097657	559.3471679687501	-1136.334106445313	-293.9819335937501	472.3460083007814	-1160.8056640625	-157.46826171875	420.3997802734376	-1176.54541015625	-141.8762969970703	404.9598693847657	-1063.857055664063	-198.0938415527344	260.3553771972657	-1093.768432617188	-253.5664062500001	234.6547851562501	-1160.505737304688	-225.6324768066407	216.9778289794922	-1123.917114257813	-281.6085205078126	166.2506408691407	-1087.694702148438	-391.5408935546876	92.61304473876955	-1127.113159179688	-366.2265014648438	99.23288726806643	-1042.520874023438	-456.7295227050782	50.6619110107422	-1077.995727539063	-238.9556121826172	60.98104476928712	-1076.264770507813	-243.7587127685547	63.87130737304689	-1122.546630859375	-282.5925598144532	40.89203643798829	-1166.756591796875	-340.4500427246094	473.6311035156251	-688.0169067382814	-274.8348388671876	494.3629150390626	-683.6731567382814	-264.0189819335938	523.9879760742189	-692.2554321289064	-209.3465881347657	440.930389404297	-690.1271972656251	-134.9571838378907	398.6198730468751	-696.7554931640626	-133.081771850586	394.4173889160157	-817.8848876953127	-147.7010803222657	273.8229064941407	-735.9104003906251	-247.6924438476563	257.2938537597657	-687.3251953125001	-218.2708435058594	228.5653381347657	-707.3504028320314	-244.0597686767579	185.4416961669922	-737.0956420898439	-389.6424560546876	95.50511932373048	-719.9287719726564	-366.6316223144532	98.23694610595706	-806.2070312500002	-452.6807556152345	51.03951263427736	-768.2650146484377	-241.1951599121094	60.63452911376955	-773.9541625976565	-235.4726715087891	59.07257461547853	-735.4102172851564	-274.1319580078126	40.41056823730469	-684.0220947265626	-529.1931762695314	694.7471923828126	-857.7178955078127	nan	nan	nan	nan	nan	nan	
537	2.68	141.0802917480469	1092.06640625	-917.904968261719	8.022810935974123	1081.854370117188	-1002.1953125	-45.61877059936524	1084.827880859375	-845.0166625976565	-125.2833862304688	1001.065063476563	-918.9229125976565	-380.6312866210938	838.945495605469	-899.5209960937502	-57.58619308471681	862.999694824219	-919.996765136719	-65.33114624023439	922.6662597656252	-1092.697998046875	-247.5084533691407	880.6223754882815	-1237.219116210938	-264.5182189941407	836.4085083007815	-1225.420776367188	-306.9846496582032	856.6103515625002	-1263.855834960938	-357.8314208984376	826.0994262695315	-1273.938354492188	-395.7990722656251	883.3479614257815	-1224.003295898438	-531.7047729492189	663.1299438476564	-1118.329467773438	-504.4361572265626	623.1335449218751	-1169.050659179688	-480.6397094726564	645.3527221679689	-1079.749267578125	-55.88761520385744	922.6963500976565	-734.7590332031251	-212.7403869628907	873.8892211914065	-575.3319091796876	-228.5851440429688	826.3599243164065	-583.6955566406251	-266.3279418945313	844.0288085937502	-540.2708129882814	-313.4637756347657	806.721862792969	-525.1934814453126	-369.4927673339844	863.185729980469	-563.7546997070314	-502.2280883789064	640.5971679687501	-656.4514770507814	-463.0609436035157	599.6206054687501	-608.5373535156251	-446.6938781738282	632.1993408203126	-704.8876953125001	-406.4004821777345	601.3103027343751	-1021.802185058594	-389.9427795410157	590.6181030273439	-786.6525878906252	-506.4968872070314	714.0858154296876	-888.549987792969	-535.9401855468751	693.8357543945314	-912.1738281250002	-414.5787048339845	513.2923583984376	-1126.1455078125	-331.2397155761719	517.4390869140626	-1149.639526367188	-309.7674255371094	558.9328002929689	-1136.431884765625	-293.5726623535157	472.0159301757814	-1160.825073242188	-157.0732574462891	420.1498107910157	-1176.564453125	-141.0220947265625	404.8327026367189	-1063.843994140625	-197.9475250244141	260.3769531250001	-1093.660766601563	-253.2723846435547	234.5251922607422	-1160.439086914063	-225.4263458251954	217.2686004638672	-1124.183715820313	-281.3911132812501	166.147201538086	-1087.65380859375	-391.5077514648439	92.6239700317383	-1127.113647460938	-366.1590270996094	99.24965667724612	-1042.484252929688	-456.7265930175782	50.71350097656251	-1077.911499023438	-238.9038238525391	60.95425415039064	-1076.213012695313	-243.3988494873047	64.85255432128908	-1122.463745117188	-282.4149780273438	40.9337501525879	-1166.740112304688	-339.8467102050782	473.3023071289064	-688.1943359375001	-274.5320434570313	494.0442810058595	-683.4277343750001	-263.4705505371094	523.6250610351564	-692.2281494140626	-209.0065460205079	440.3419494628907	-690.1585083007814	-134.4730529785157	398.3169250488282	-696.7011108398439	-132.5169525146485	394.177215576172	-817.9974365234377	-147.4132537841797	273.5551757812501	-736.0412597656251	-247.1356658935547	256.7509155273438	-687.4439086914064	-217.969711303711	228.269027709961	-707.4352416992189	-243.9371643066407	185.435775756836	-737.2630615234376	-389.5747985839845	95.52931976318361	-719.9561157226564	-366.6386413574219	98.21372985839847	-806.2631835937502	-452.6910095214845	51.06811523437501	-768.363464355469	-240.9864654541016	60.67046356201173	-773.961364746094	-235.4691925048829	59.1057815551758	-735.3926391601564	-274.1238403320313	40.46350479125977	-684.0265502929689	-528.6705322265626	694.2762451171876	-857.6644287109377	nan	nan	nan	nan	nan	nan	
538	2.685	141.728515625	1091.703002929688	-918.063903808594	8.361442565917971	1081.472900390625	-1002.204467773438	-45.13580322265626	1084.357299804688	-845.061462402344	-125.0115737915039	1000.719116210938	-918.8164062500002	-380.1675415039063	838.4831542968752	-899.5347900390627	-56.81440353393556	862.6292114257815	-920.0347900390627	-64.87609100341798	922.3189697265627	-1092.670288085938	-247.0461425781251	880.1959228515627	-1237.250366210938	-263.9602355957032	836.0744628906252	-1225.477172851563	-306.5461425781251	856.309997558594	-1263.866088867188	-357.3000488281251	825.616882324219	-1274.010375976563	-395.4819946289064	883.2181396484377	-1224.18994140625	-531.2609252929689	662.7576293945314	-1118.336547851563	-504.5767822265626	622.2670898437501	-1168.8408203125	-480.2297363281251	645.1001586914064	-1079.762329101563	-55.39268112182619	922.2664794921877	-734.7496948242189	-212.1786041259766	873.420593261719	-575.3312377929689	-227.9118041992188	825.8179321289065	-583.7465820312501	-265.6186218261719	843.3005371093752	-540.3336791992189	-312.9425354003907	806.0319824218752	-524.9130859375001	-368.8866271972657	862.7314453125002	-563.6889038085939	-501.7135009765626	640.3056030273439	-656.4423217773439	-462.5134277343751	599.3879394531251	-608.6161499023439	-446.2930603027345	632.0084228515626	-704.9616088867189	-405.746551513672	601.0886230468751	-1022.043884277344	-389.6748962402345	589.8000488281251	-786.855895996094	-506.0797424316407	713.6115112304689	-888.5396118164065	-535.5092163085939	693.5054321289064	-912.125671386719	-414.1579895019532	512.9075927734376	-1126.206909179688	-330.9289245605469	517.1965332031251	-1149.65576171875	-309.3974609375001	558.5805053710939	-1136.424194335938	-293.3167724609376	471.7799377441407	-1160.815795898438	-156.6165466308594	419.9270019531251	-1176.548461914063	-140.2911682128907	404.6607360839845	-1063.78125	-197.8228759765626	260.3355102539063	-1093.6123046875	-253.0755767822266	234.4183654785157	-1160.376220703125	-225.3010253906251	217.145492553711	-1124.351440429688	-281.2879943847657	166.1436462402344	-1087.608154296875	-391.4744873046876	92.6640090942383	-1126.958984375	-366.0538330078126	99.19557952880862	-1042.401611328125	-456.6585693359376	50.82176971435548	-1077.832641601563	-238.9014587402344	60.93910980224611	-1076.260986328125	-243.4465332031251	64.80223083496095	-1122.405029296875	-282.5383300781251	40.96993637084962	-1166.703125	-339.4288940429688	473.075653076172	-688.1934814453126	-273.9392700195313	493.5415344238282	-683.6309204101564	-262.8475952148438	523.2258300781251	-692.3059692382814	-208.406723022461	440.1521606445314	-690.3461303710939	-133.9424743652344	397.8843994140626	-696.6443481445314	-131.8097076416016	394.1358337402345	-818.170104980469	-146.983871459961	273.3241577148438	-736.0688476562501	-246.8669891357422	256.4559326171876	-687.3241577148439	-217.7265625000001	228.0104522705079	-707.5703735351564	-243.6520233154297	185.2597351074219	-737.3874511718751	-389.5238647460939	95.50233459472658	-719.9308471679689	-366.5406188964844	98.19946289062503	-806.3115234375002	-452.7211914062501	51.1434669494629	-768.4293212890627	-241.1696319580079	60.59031295776369	-773.9584960937502	-235.5127258300782	59.10933303833009	-735.4177856445314	-274.1424865722657	40.39347839355469	-684.1075439453126	-528.2025146484376	693.8724975585939	-857.6968383789065	nan	nan	nan	nan	nan	nan	
